<svg xmlns="http://www.w3.org/2000/svg" viewBox="0 0 282 350" id="el_3uoe1ddCz"><style>@-webkit-keyframes kf_el_ZMFz9ZI2s__an_ovi-l7hNd{0%{-webkit-transform: translate(151.79447174072266px, 302.48069763183594px) rotate(0deg) translate(-151.79447174072266px, -302.48069763183594px);transform: translate(151.79447174072266px, 302.48069763183594px) rotate(0deg) translate(-151.79447174072266px, -302.48069763183594px);}50%{-webkit-transform: translate(151.79447174072266px, 302.48069763183594px) rotate(720deg) translate(-151.79447174072266px, -302.48069763183594px);transform: translate(151.79447174072266px, 302.48069763183594px) rotate(720deg) translate(-151.79447174072266px, -302.48069763183594px);}100%{-webkit-transform: translate(151.79447174072266px, 302.48069763183594px) rotate(720deg) translate(-151.79447174072266px, -302.48069763183594px);transform: translate(151.79447174072266px, 302.48069763183594px) rotate(720deg) translate(-151.79447174072266px, -302.48069763183594px);}}@keyframes kf_el_ZMFz9ZI2s__an_ovi-l7hNd{0%{-webkit-transform: translate(151.79447174072266px, 302.48069763183594px) rotate(0deg) translate(-151.79447174072266px, -302.48069763183594px);transform: translate(151.79447174072266px, 302.48069763183594px) rotate(0deg) translate(-151.79447174072266px, -302.48069763183594px);}50%{-webkit-transform: translate(151.79447174072266px, 302.48069763183594px) rotate(720deg) translate(-151.79447174072266px, -302.48069763183594px);transform: translate(151.79447174072266px, 302.48069763183594px) rotate(720deg) translate(-151.79447174072266px, -302.48069763183594px);}100%{-webkit-transform: translate(151.79447174072266px, 302.48069763183594px) rotate(720deg) translate(-151.79447174072266px, -302.48069763183594px);transform: translate(151.79447174072266px, 302.48069763183594px) rotate(720deg) translate(-151.79447174072266px, -302.48069763183594px);}}#el_3uoe1ddCz *{-webkit-animation-duration: 3s;animation-duration: 3s;-webkit-animation-iteration-count: 1;animation-iteration-count: 1;-webkit-animation-timing-function: cubic-bezier(0, 0, 1, 1);animation-timing-function: cubic-bezier(0, 0, 1, 1);}#el_1ucweNqdHe{fill: #fff;}#el_ZMFz9ZI2s_{fill: #fff;}#el_ZMFz9ZI2s__an_ovi-l7hNd{-webkit-transform: translate(151.79447174072266px, 302.48069763183594px) rotate(0deg) translate(-151.79447174072266px, -302.48069763183594px);transform: translate(151.79447174072266px, 302.48069763183594px) rotate(0deg) translate(-151.79447174072266px, -302.48069763183594px);-webkit-animation-fill-mode: backwards;animation-fill-mode: backwards;-webkit-animation-name: kf_el_ZMFz9ZI2s__an_ovi-l7hNd;animation-name: kf_el_ZMFz9ZI2s__an_ovi-l7hNd;-webkit-animation-timing-function: cubic-bezier(0, 0, 1, 1);animation-timing-function: cubic-bezier(0, 0, 1, 1);}</style><defs/><title>logo biancoNunzioTavola disegno 1</title><g id="el_e8ebheL5z5"><path d="M260.23,107.7a16.88,16.88,0,0,0-2.33-10.65c-1.83-3.46-4.1-6.42-7.91-7.19-6-1.21-13.4,1-17,2.81-7.25,3.71-20.69,14.55-20.69,14.55s-1.23,1.36-1.89-.6-5.67-18-5.67-18l-14-41.76s-3.58-13-15.13-19.35-22.62-8-27.4-8-21-.56-31.63,1.59S94.56,26.22,77,34.9,52.57,50.84,46.68,58.08a44.8,44.8,0,0,0-8,15.38s-3.26,9.48,1,23.9,16.51,52.53,16.51,52.53,1.15,1.49-.88,1.49S33,149.89,24.29,154.55s-12.48,12.75-9.58,20,7.76,17.14,29.34,21.18c0,0,3.11.13,8.28.22a12.81,12.81,0,0,0-4.6,1.33c-1.8,1.09-1.42,3.25-1.42,5.14,0,4.71,2.8,5.05,6.11,6.32s4.19,9.45,4.19,9.45A49.26,49.26,0,0,0,61,232.31c3.77,8.31,9.69,15.87,17.68,20.47a37.56,37.56,0,0,0,24.17,4.47,40,40,0,0,0,22-11.14,44.39,44.39,0,0,0,3.93-4.51,56.19,56.19,0,0,0,7.11-12.73c1.87-4.55,2.88-9.33,4.55-13.93.75-2.06,1.53-4.3.88-6.5a1.32,1.32,0,0,0-.7-.82,6.29,6.29,0,0,1-2.31-3.92c-.37-2.53,4.65-3.67,6.27-4.07a54.53,54.53,0,0,1,15.45,0c1.61.4,6.63,1.54,6.27,4.07a6.34,6.34,0,0,1-2.31,3.92,1.32,1.32,0,0,0-.71.82c-.65,2.2.13,4.44.88,6.5,1.67,4.6,2.69,9.38,4.55,13.93a56.23,56.23,0,0,0,7.12,12.73,42,42,0,0,0,3.93,4.51,39.9,39.9,0,0,0,22,11.14,37.58,37.58,0,0,0,24.18-4.47c8-4.6,13.91-12.16,17.68-20.47a49.24,49.24,0,0,0,4.34-14.16s.89-8.18,4.2-9.45,6.1-1.61,6.1-6.32c0-1.89.39-4-1.41-5.14-2.48-1.5-6.86-1.38-9.65-2.2-9.53-2.8-18.39-7.41-28-9.87a112.61,112.61,0,0,0-19.16-2.69c-5-.4-13.47.6-16.58,1a26.25,26.25,0,0,1-7.94-.44c-1.43-.23-6.58-.77-8.89-1,10.79-4.13,31.15-13.7,64.57-35.65C231.07,146.41,257.82,130.29,260.23,107.7ZM97.35,253.46C77.91,253.32,65.62,239.23,62.1,221c-1.32-6.88-1-13.73,2.31-19.38a20.63,20.63,0,0,1,5.09-5.69c7.91-.12,17-.42,26.31-1.07,8.26-.58,16.68-1.46,24.56-2.49.56.2,1.12.41,1.67.63,7.24,2.94,11,10.1,11.45,17.72C134.62,231.41,119.63,253.62,97.35,253.46ZM182.45,193c10.6-4.3,23.7-5.38,35-3.92,8.39,1.09,18.12,4.89,22.64,12.54,3.34,5.65,3.63,12.5,2.3,19.38-3.51,18.24-15.8,32.33-35.24,32.47-22.29.16-37.28-22.05-36.14-42.75C171.42,203.09,175.21,195.93,182.45,193Zm-8.66-6.49c1.75.51,3.86.67,5.51,1.37a1.18,1.18,0,0,1,.75.91,1.22,1.22,0,0,1-.54,1,4.11,4.11,0,0,1-1.09.48c-3,1-5.64,3.67-9.1,3.21-3.26-.42-1.81-.7-16.58-1v0h-1v0c-14.76.26-13.31.54-16.57,1-2.61.35-4.73-1.07-6.92-2.23,13.07-2,23.78-4.26,28.39-6.13,0,0,.56-.08,1.71-.37A84.48,84.48,0,0,1,173.79,186.5Z" id="el_1ucweNqdHe"/><g id="el_ZMFz9ZI2s__an_ovi-l7hNd" data-animator-group="true" data-animator-type="1"><path d="M244.76,293.8c0-.29-.11-.64-.39-.72s-.54.16-.74.37c-4.1,4.37-10.2,3.21-15.44,2.16a59.26,59.26,0,0,1-17.55-6.34c-6.57-3.74-11.82-9.43-18.58-12.86-8.82-4.46-19.65-4.71-28.36.07-2.77,1.52-6,3.68-7.79,6.33a40.8,40.8,0,0,0-3,6.4,2.23,2.23,0,0,1-1.11,1.15,2.24,2.24,0,0,1-1.12-1.15,40.8,40.8,0,0,0-3-6.4c-1.81-2.65-5-4.81-7.79-6.33-8.71-4.78-19.54-4.53-28.36-.07-6.76,3.43-12,9.12-18.58,12.86a59.26,59.26,0,0,1-17.55,6.34c-5.24,1.05-11.34,2.21-15.44-2.16-.2-.21-.46-.46-.74-.37s-.36.43-.39.72a21.74,21.74,0,0,0,4.12,14.88A19.87,19.87,0,0,0,78.44,317s.85-.33.85,1.7-.68,2.88-2.37,3.85a17.6,17.6,0,0,0-2.1,1,.94.94,0,0,0-.33,1.1,1.22,1.22,0,0,0,.49.44,11.8,11.8,0,0,0,3.85,1.32c5.8,1.17,12.64,1.45,18.33-.46,0,0,3-1.62,2.65,1.28.12,1.83-.32,2.9-1.89,3.74a.73.73,0,0,0-.26.2c-.24.4.42.7.88.69a38.65,38.65,0,0,0,10-1.69c2.8-.86,7.14-2,8.81-4.62,0,0,.75-1.72,1.56.49.72,2,.3,3.61-.37,5.5a.45.45,0,0,0,0,.23c0,.19.3.22.5.21,4.56-.3,8.69-2.59,12.72-4.58,3.09-1.53,6.74-3,9.35-5.33,2.42-2.15,8.41-6.07,10.66-12.26C154,316,160,319.88,162.4,322c2.61,2.32,6.26,3.8,9.35,5.33,4,2,8.16,4.28,12.72,4.58.2,0,.46,0,.5-.21a.45.45,0,0,0,0-.23c-.67-1.89-1.09-3.52-.37-5.5.81-2.21,1.57-.49,1.57-.49,1.66,2.6,6,3.76,8.8,4.62a38.65,38.65,0,0,0,10,1.69c.46,0,1.12-.29.88-.69a.65.65,0,0,0-.26-.2c-1.57-.84-2-1.91-1.89-3.74-.4-2.9,2.65-1.28,2.65-1.28,5.69,1.91,12.53,1.63,18.33.46a11.72,11.72,0,0,0,3.85-1.32,1.22,1.22,0,0,0,.49-.44.93.93,0,0,0-.33-1.1,16.89,16.89,0,0,0-2.1-1c-1.69-1-2.37-1.81-2.37-3.85s.85-1.7.85-1.7a19.85,19.85,0,0,0,15.59-8.29A21.74,21.74,0,0,0,244.76,293.8Z" id="el_ZMFz9ZI2s_"/></g></g></svg>